<svg width="1589" height="1179" viewBox="0 0 1589 1179" fill="none" xmlns="http://www.w3.org/2000/svg">
<g id="Desktop - 1" clip-path="url(#clip0_79_8)">
<rect width="1589" height="1179" fill="black"/>
<g id="Vector" filter="url(#filter0_df_79_8)">
<path fill-rule="evenodd" clip-rule="evenodd" d="M554.44 870.768C634.847 890.053 624.95 985.894 706.888 1002.28C805.273 1021.95 909.913 936.664 1005.75 961.015C1083.93 980.88 1124.91 1052.03 1114.37 1105.81C1102.62 1165.76 1024.3 1213.92 949.112 1249.95C888.019 1279.22 789.025 1256.94 731.656 1289.2C697.657 1308.32 730.992 1346.54 725.912 1375.45C712.75 1450.36 768.572 1549.66 677.579 1596.95C610.998 1631.55 509.162 1558.87 458.484 1514.44C408.512 1470.64 476.375 1384.63 403.802 1356.95C320.365 1325.13 206.068 1413.37 119.551 1385.18C58.0563 1365.14 72.8377 1297.74 89.934 1254.69C106.781 1212.26 153.141 1172.91 212.346 1151.47C270.578 1130.4 387.36 1179.64 409.523 1139C449.163 1066.33 302.215 987.399 341.519 914.649C366.313 868.756 483.831 853.834 554.44 870.768Z" fill="#F7F7F7"/>
</g>
<g id="Vector_2" filter="url(#filter1_df_79_8)">
<path fill-rule="evenodd" clip-rule="evenodd" d="M1524.61 -370.927C1584.61 -374.176 1584.18 -268.153 1605.12 -211.825C1616.47 -181.303 1614.34 -148.43 1619.3 -116.246C1621.99 -98.7859 1617.16 -78.6007 1627.83 -64.5255C1645.55 -41.1646 1700.27 -41.9995 1697.78 -12.7839C1695.32 16.0598 1625.44 -4.23319 1620.28 24.2506C1611.48 72.8071 1670.91 114.32 1665.84 163.407C1660.79 212.417 1640.89 279.121 1592.85 290.079C1545.23 300.942 1521.71 217.566 1473.99 207.175C1426.61 196.859 1356.17 275.727 1332.52 233.394C1301.02 176.973 1375.41 112.97 1385.76 49.1813C1389.29 27.3909 1365.57 5.81569 1372.83 -15.032C1380.7 -37.6557 1433.44 -40.9695 1424.94 -63.3676C1397.35 -136.097 1272.3 -170.067 1284.89 -246.831C1294.08 -302.938 1397.39 -177.173 1447.88 -203.311C1503.05 -231.872 1462.57 -367.568 1524.61 -370.927Z" fill="#1E193F"/>
</g>
<g id="Vector_3" filter="url(#filter2_df_79_8)">
<path fill-rule="evenodd" clip-rule="evenodd" d="M1469.71 -1.55638C1519.34 -7.48811 1501.47 -123.935 1551.21 -118.837C1595.58 -114.291 1527.41 -37.7448 1528.18 4.43672C1528.4 15.9287 1544.74 20.8018 1553.91 28.3498C1570.65 42.1283 1603.8 46.7019 1604.98 67.6534C1606.05 86.6181 1561.42 83.7242 1558.09 102.454C1552.21 135.605 1603.33 173.151 1581.53 199.708C1563.39 221.8 1526.71 178.796 1497.22 176.597C1477.29 175.11 1459.24 191.324 1439.37 189.107C1419.21 186.855 1391.69 182.297 1385.25 164.094C1376.63 139.69 1424.55 107.108 1404.31 89.9031C1372.44 62.8099 1299.92 108.243 1278.36 73.2244C1261.38 45.6534 1340.86 46.0165 1361.96 21.1176C1373.96 6.95175 1362.86 -14.9294 1367.9 -32.4443C1374.75 -56.2728 1372.02 -107.94 1396.89 -100.394C1437.77 -87.9896 1427.1 3.53503 1469.71 -1.55638Z" fill="#3F447B"/>
</g>
<g id="Vector_4" filter="url(#filter3_df_79_8)">
<path fill-rule="evenodd" clip-rule="evenodd" d="M1453.46 -291.841C1494.49 -281.015 1511.95 -228.934 1550.9 -212.113C1590.45 -195.035 1661.44 -235.002 1677.58 -195.06C1697.78 -145.055 1613.33 -100.394 1617.74 -46.6436C1620.81 -9.26714 1711.94 -1.79995 1696.22 32.2486C1676.74 74.4386 1583.48 28.3321 1563.71 70.3869C1541.39 117.879 1624.6 169.799 1608.14 219.627C1596.8 253.947 1537.06 232.109 1504.86 248.525C1460.4 271.186 1430.77 351.084 1383.92 333.928C1332.66 315.161 1350.55 231.356 1325.5 182.857C1311.65 156.046 1294.48 130.052 1269.71 112.824C1224.4 81.3162 1147.7 90.5272 1122.29 41.5418C1101.26 1.01926 1137.33 -51.2637 1166.24 -86.589C1193.92 -120.394 1250.15 -117.545 1279.22 -150.157C1308.49 -182.998 1295.95 -242.629 1330.08 -270.385C1362.83 -297.012 1412.65 -302.61 1453.46 -291.841Z" fill="#3D368C"/>
</g>
<g id="Vector_5" filter="url(#filter4_df_79_8)">
<path fill-rule="evenodd" clip-rule="evenodd" d="M116.72 773.003C250.055 767.065 385.749 654.391 494.862 714.699C602.934 774.432 545.458 907.259 547.038 1010.84C548.651 1116.59 609.623 1248.26 504.007 1314.15C398.347 1380.07 251.806 1279.71 116.72 1279.3C-17.2279 1278.9 -175.977 1388.35 -267.596 1311.83C-359.897 1234.73 -213.428 1116.31 -204.683 1010.84C-197.098 919.357 -305.815 809.535 -220.727 746.569C-135.31 683.36 -0.606423 778.229 116.72 773.003Z" fill="#7B41B4"/>
</g>
<g id="Vector_6" filter="url(#filter5_df_79_8)">
<path fill-rule="evenodd" clip-rule="evenodd" d="M1006.36 990.177C1242.78 985.007 1483.39 886.9 1676.86 939.411C1868.49 991.421 1766.58 1107.08 1769.38 1197.27C1772.24 1289.34 1880.35 1403.99 1693.08 1461.36C1505.73 1518.76 1245.89 1431.38 1006.36 1431.02C768.851 1430.67 487.365 1525.97 324.911 1459.34C161.247 1392.21 420.958 1289.1 436.464 1197.27C449.915 1117.61 257.143 1021.99 408.017 967.161C559.473 912.124 798.323 994.727 1006.36 990.177Z" fill="#7B41B4"/>
</g>
</g>
<defs>
<filter id="filter0_df_79_8" x="-425" y="364" width="2041" height="1742" filterUnits="userSpaceOnUse" color-interpolation-filters="sRGB">
<feFlood flood-opacity="0" result="BackgroundImageFix"/>
<feColorMatrix in="SourceAlpha" type="matrix" values="0 0 0 0 0 0 0 0 0 0 0 0 0 0 0 0 0 0 127 0" result="hardAlpha"/>
<feOffset dy="4"/>
<feGaussianBlur stdDeviation="2"/>
<feComposite in2="hardAlpha" operator="out"/>
<feColorMatrix type="matrix" values="0 0 0 0 0 0 0 0 0 0 0 0 0 0 0 0 0 0 0.25 0"/>
<feBlend mode="normal" in2="BackgroundImageFix" result="effect1_dropShadow_79_8"/>
<feBlend mode="normal" in="SourceGraphic" in2="effect1_dropShadow_79_8" result="shape"/>
<feGaussianBlur stdDeviation="250" result="effect2_foregroundBlur_79_8"/>
</filter>
<filter id="filter1_df_79_8" x="784" y="-871" width="1413.86" height="1662.05" filterUnits="userSpaceOnUse" color-interpolation-filters="sRGB">
<feFlood flood-opacity="0" result="BackgroundImageFix"/>
<feColorMatrix in="SourceAlpha" type="matrix" values="0 0 0 0 0 0 0 0 0 0 0 0 0 0 0 0 0 0 127 0" result="hardAlpha"/>
<feOffset dy="4"/>
<feGaussianBlur stdDeviation="2"/>
<feComposite in2="hardAlpha" operator="out"/>
<feColorMatrix type="matrix" values="0 0 0 0 0 0 0 0 0 0 0 0 0 0 0 0 0 0 0.25 0"/>
<feBlend mode="normal" in2="BackgroundImageFix" result="effect1_dropShadow_79_8"/>
<feBlend mode="normal" in="SourceGraphic" in2="effect1_dropShadow_79_8" result="shape"/>
<feGaussianBlur stdDeviation="250" result="effect2_foregroundBlur_79_8"/>
</filter>
<filter id="filter2_df_79_8" x="776" y="-619" width="1329" height="1325" filterUnits="userSpaceOnUse" color-interpolation-filters="sRGB">
<feFlood flood-opacity="0" result="BackgroundImageFix"/>
<feColorMatrix in="SourceAlpha" type="matrix" values="0 0 0 0 0 0 0 0 0 0 0 0 0 0 0 0 0 0 127 0" result="hardAlpha"/>
<feOffset dy="4"/>
<feGaussianBlur stdDeviation="2"/>
<feComposite in2="hardAlpha" operator="out"/>
<feColorMatrix type="matrix" values="0 0 0 0 0 0 0 0 0 0 0 0 0 0 0 0 0 0 0.25 0"/>
<feBlend mode="normal" in2="BackgroundImageFix" result="effect1_dropShadow_79_8"/>
<feBlend mode="normal" in="SourceGraphic" in2="effect1_dropShadow_79_8" result="shape"/>
<feGaussianBlur stdDeviation="250" result="effect2_foregroundBlur_79_8"/>
</filter>
<filter id="filter3_df_79_8" x="616" y="-797" width="1582.04" height="1633.32" filterUnits="userSpaceOnUse" color-interpolation-filters="sRGB">
<feFlood flood-opacity="0" result="BackgroundImageFix"/>
<feColorMatrix in="SourceAlpha" type="matrix" values="0 0 0 0 0 0 0 0 0 0 0 0 0 0 0 0 0 0 127 0" result="hardAlpha"/>
<feOffset dy="4"/>
<feGaussianBlur stdDeviation="2"/>
<feComposite in2="hardAlpha" operator="out"/>
<feColorMatrix type="matrix" values="0 0 0 0 0 0 0 0 0 0 0 0 0 0 0 0 0 0 0.25 0"/>
<feBlend mode="normal" in2="BackgroundImageFix" result="effect1_dropShadow_79_8"/>
<feBlend mode="normal" in="SourceGraphic" in2="effect1_dropShadow_79_8" result="shape"/>
<feGaussianBlur stdDeviation="250" result="effect2_foregroundBlur_79_8"/>
</filter>
<filter id="filter4_df_79_8" x="-798" y="197" width="1864" height="1642" filterUnits="userSpaceOnUse" color-interpolation-filters="sRGB">
<feFlood flood-opacity="0" result="BackgroundImageFix"/>
<feColorMatrix in="SourceAlpha" type="matrix" values="0 0 0 0 0 0 0 0 0 0 0 0 0 0 0 0 0 0 127 0" result="hardAlpha"/>
<feOffset dy="4"/>
<feGaussianBlur stdDeviation="2"/>
<feComposite in2="hardAlpha" operator="out"/>
<feColorMatrix type="matrix" values="0 0 0 0 0 0 0 0 0 0 0 0 0 0 0 0 0 0 0.25 0"/>
<feBlend mode="normal" in2="BackgroundImageFix" result="effect1_dropShadow_79_8"/>
<feBlend mode="normal" in="SourceGraphic" in2="effect1_dropShadow_79_8" result="shape"/>
<feGaussianBlur stdDeviation="250" result="effect2_foregroundBlur_79_8"/>
</filter>
<filter id="filter5_df_79_8" x="-429" y="224" width="2932" height="1959" filterUnits="userSpaceOnUse" color-interpolation-filters="sRGB">
<feFlood flood-opacity="0" result="BackgroundImageFix"/>
<feColorMatrix in="SourceAlpha" type="matrix" values="0 0 0 0 0 0 0 0 0 0 0 0 0 0 0 0 0 0 127 0" result="hardAlpha"/>
<feOffset dy="4"/>
<feGaussianBlur stdDeviation="2"/>
<feComposite in2="hardAlpha" operator="out"/>
<feColorMatrix type="matrix" values="0 0 0 0 0 0 0 0 0 0 0 0 0 0 0 0 0 0 0.25 0"/>
<feBlend mode="normal" in2="BackgroundImageFix" result="effect1_dropShadow_79_8"/>
<feBlend mode="normal" in="SourceGraphic" in2="effect1_dropShadow_79_8" result="shape"/>
<feGaussianBlur stdDeviation="350" result="effect2_foregroundBlur_79_8"/>
</filter>
<clipPath id="clip0_79_8">
<rect width="1589" height="1179" fill="white"/>
</clipPath>
</defs>
</svg>
